<svg width="16" height="19" viewBox="0 0 16 19" fill="none" xmlns="http://www.w3.org/2000/svg">
<path d="M1.14286 17.2625C1.14286 17.7233 1.32347 18.1652 1.64496 18.4911C1.96645 18.8169 2.40249 19 2.85714 19H13.1429C13.5975 19 14.0336 18.8169 14.355 18.4911C14.6765 18.1652 14.8571 17.7233 14.8571 17.2625V5.09997H1.14286V17.2625ZM10.8571 7.99581C10.8571 7.84221 10.9173 7.69489 11.0245 7.58628C11.1317 7.47766 11.277 7.41664 11.4286 7.41664C11.5801 7.41664 11.7255 7.47766 11.8326 7.58628C11.9398 7.69489 12 7.84221 12 7.99581V16.1042C12 16.2578 11.9398 16.4051 11.8326 16.5137C11.7255 16.6223 11.5801 16.6833 11.4286 16.6833C11.277 16.6833 11.1317 16.6223 11.0245 16.5137C10.9173 16.4051 10.8571 16.2578 10.8571 16.1042V7.99581ZM7.42857 7.99581C7.42857 7.84221 7.48878 7.69489 7.59594 7.58628C7.7031 7.47766 7.84845 7.41664 8 7.41664C8.15155 7.41664 8.2969 7.47766 8.40406 7.58628C8.51122 7.69489 8.57143 7.84221 8.57143 7.99581V16.1042C8.57143 16.2578 8.51122 16.4051 8.40406 16.5137C8.2969 16.6223 8.15155 16.6833 8 16.6833C7.84845 16.6833 7.7031 16.6223 7.59594 16.5137C7.48878 16.4051 7.42857 16.2578 7.42857 16.1042V7.99581ZM4 7.99581C4 7.84221 4.0602 7.69489 4.16737 7.58628C4.27453 7.47766 4.41988 7.41664 4.57143 7.41664C4.72298 7.41664 4.86833 7.47766 4.97549 7.58628C5.08265 7.69489 5.14286 7.84221 5.14286 7.99581V16.1042C5.14286 16.2578 5.08265 16.4051 4.97549 16.5137C4.86833 16.6223 4.72298 16.6833 4.57143 16.6833C4.41988 16.6833 4.27453 16.6223 4.16737 16.5137C4.0602 16.4051 4 16.2578 4 16.1042V7.99581ZM15.4286 1.62497H11.1429L10.8071 0.948068C10.736 0.803354 10.6265 0.681623 10.4908 0.596571C10.3552 0.511519 10.1988 0.466519 10.0393 0.466635H5.95714C5.79799 0.466015 5.64189 0.510847 5.50672 0.595994C5.37154 0.681141 5.26277 0.803159 5.19286 0.948068L4.85714 1.62497H0.571429C0.419876 1.62497 0.274531 1.68599 0.167368 1.7946C0.0602039 1.90322 0 2.05053 0 2.20414L0 3.36247C0 3.51608 0.0602039 3.66339 0.167368 3.77201C0.274531 3.88062 0.419876 3.94164 0.571429 3.94164H15.4286C15.5801 3.94164 15.7255 3.88062 15.8326 3.77201C15.9398 3.66339 16 3.51608 16 3.36247V2.20414C16 2.05053 15.9398 1.90322 15.8326 1.7946C15.7255 1.68599 15.5801 1.62497 15.4286 1.62497Z" fill="#FF7171"/>
</svg>
