<?xml version="1.0" standalone="no"?>
<!DOCTYPE svg PUBLIC "-//W3C//DTD SVG 20010904//EN"
 "http://www.w3.org/TR/2001/REC-SVG-20010904/DTD/svg10.dtd">
<svg version="1.0" xmlns="http://www.w3.org/2000/svg"
 width="260.000000pt" height="260.000000pt" viewBox="0 0 260.000000 260.000000"
 preserveAspectRatio="xMidYMid meet">
<metadata>
Created by potrace 1.11, written by Peter Selinger 2001-2013
</metadata>
<g transform="translate(0.000000,260.000000) scale(0.100000,-0.100000)"
fill="#000000" stroke="none">
<path d="M2170 2059 c-58 -10 -123 -21 -145 -24 -22 -3 -89 -14 -150 -24
l-110 -19 215 -1 c118 -1 222 -6 230 -11 12 -8 15 -44 17 -207 1 -109 3 -211
4 -228 1 -27 37 198 55 345 3 30 8 57 9 60 2 3 6 33 10 68 8 73 20 69 -135 41z"/>
<path d="M433 1885 c-16 -12 -18 -31 -20 -184 -2 -159 -1 -173 17 -191 24 -24
96 -27 126 -6 18 13 19 28 19 190 0 127 -3 178 -13 188 -17 17 -106 20 -129 3z
m82 -190 c0 -143 -1 -150 -20 -150 -19 0 -20 7 -22 140 -2 157 0 168 24 163
16 -3 18 -18 18 -153z"/>
<path d="M629 1879 c-18 -18 -21 -30 -17 -73 3 -41 13 -63 51 -116 39 -53 47
-72 47 -107 0 -36 -3 -43 -20 -43 -16 0 -20 7 -20 30 0 27 -3 30 -30 30 -28 0
-30 -2 -30 -39 0 -50 21 -71 68 -71 82 0 96 16 93 104 -1 48 -14 73 -81 164
-14 18 -20 40 -18 58 4 37 32 39 36 2 3 -22 8 -26 33 -26 26 1 29 4 29 35 0
46 -29 73 -80 73 -27 0 -47 -7 -61 -21z"/>
<path d="M809 1880 c-3 -51 -4 -367 -1 -377 2 -7 17 -13 32 -13 l27 0 -3 123
-3 122 24 -114 c22 -102 34 -130 56 -131 4 0 14 33 23 73 35 161 35 160 34 52
0 -135 -2 -127 30 -123 l27 3 1 198 c0 108 -4 198 -8 198 -4 1 -15 2 -23 2 -8
0 -21 -1 -28 -2 -13 -1 -61 -202 -59 -246 2 -40 -17 8 -23 60 -4 27 -11 66
-15 85 -5 19 -11 48 -14 64 -7 36 -11 40 -47 41 -19 1 -29 -4 -30 -15z"/>
<path d="M1110 1880 c-18 -18 -20 -33 -20 -188 0 -195 3 -202 81 -202 80 0 86
14 84 219 -1 148 -2 155 -24 172 -32 26 -95 25 -121 -1z m81 -47 c3 -54 4
-270 1 -280 -2 -7 -13 -13 -23 -13 -18 0 -19 9 -19 148 0 82 3 152 7 155 13
13 33 7 34 -10z"/>
<path d="M1300 1891 c-12 -5 -15 -40 -15 -204 l0 -198 30 3 30 3 -2 105 -1
105 31 -107 c29 -102 32 -108 57 -108 l26 0 0 199 c0 188 -1 200 -19 205 -39
10 -43 0 -40 -107 l2 -102 -15 50 c-8 28 -21 75 -30 106 -16 54 -24 62 -54 50z"/>
<path d="M1508 1892 c-16 -3 -18 -21 -18 -203 l0 -200 61 2 c97 4 99 6 100
189 2 169 -2 196 -32 205 -25 8 -88 12 -111 7z m83 -83 c0 -16 1 -45 1 -64 0
-197 -1 -205 -22 -205 -19 0 -20 7 -20 148 0 82 3 151 6 155 13 13 34 -7 35
-34z"/>
<path d="M1730 1876 c-4 -12 -11 -48 -14 -81 -4 -33 -9 -71 -11 -85 -13 -75
-25 -168 -25 -192 0 -24 4 -28 30 -28 17 0 30 5 31 13 3 48 24 76 44 56 10
-10 12 -15 14 -49 1 -15 8 -20 31 -20 26 0 33 7 32 30 -1 15 -14 116 -18 134
-2 12 -9 64 -16 116 -6 52 -14 101 -18 109 -4 8 -22 15 -40 16 -24 1 -34 -4
-40 -19z m49 -143 c7 -113 6 -118 -10 -121 -14 -3 -16 6 -12 60 4 62 11 108
16 108 1 0 4 -21 6 -47z"/>
<path d="M1901 1883 c-23 -19 -24 -24 -23 -149 1 -205 1 -212 18 -228 20 -20
58 -20 78 0 15 14 17 14 22 0 3 -9 15 -16 25 -16 18 0 19 9 19 113 l0 113 -40
-4 c-31 -3 -40 -8 -40 -22 0 -11 5 -22 10 -25 6 -3 10 -31 10 -61 0 -40 -4
-56 -15 -61 -9 -3 -18 -3 -21 0 -4 4 -7 158 -5 270 1 58 41 45 41 -13 0 -14 7
-18 28 -17 25 3 27 6 26 45 -1 53 -11 63 -66 69 -33 4 -49 0 -67 -14z"/>
<path d="M2083 1893 c-10 -3 -13 -54 -13 -202 l0 -198 30 -1 30 -1 0 199 c0
171 -2 199 -16 204 -9 3 -16 6 -17 5 -1 0 -8 -3 -14 -6z"/>
<path d="M491 1297 c-19 -7 -44 -25 -55 -40 -20 -27 -21 -42 -24 -330 -4 -326
0 -362 45 -396 35 -28 179 -30 224 -4 50 30 53 51 53 377 1 332 -3 354 -58
383 -38 20 -139 25 -185 10z m116 -99 c10 -18 12 -559 1 -580 -10 -21 -48 -24
-66 -6 -17 17 -17 569 0 586 16 16 55 15 65 0z"/>
<path d="M18 1294 c-4 -8 -3 -755 1 -776 0 -4 57 -6 125 -4 184 4 198 17 201
193 1 125 -10 177 -47 205 -13 10 -17 18 -10 18 28 0 47 72 46 173 -2 169 -22
189 -195 195 -64 2 -118 0 -121 -4z m191 -100 c9 -9 8 -199 -1 -216 -6 -12
-20 -18 -41 -18 l-32 0 0 113 c0 61 4 117 8 124 7 11 55 9 66 -3z m10 -340 c9
-9 12 -217 3 -232 -5 -7 -26 -13 -48 -15 l-39 -2 -1 120 c0 66 3 125 8 132 9
11 65 10 77 -3z"/>
<path d="M797 928 c1 -205 2 -383 2 -396 1 -22 2 -22 131 -21 142 1 132 -3
132 59 0 11 0 24 -1 28 0 5 -33 8 -71 8 -40 -1 -70 3 -71 9 0 6 -1 161 -2 345
l-2 335 -60 3 -60 3 2 -373z"/>
<path d="M1216 1283 c-3 -10 -7 -40 -10 -68 -5 -41 -30 -238 -52 -395 -6 -44
-16 -111 -19 -130 -2 -13 -10 -73 -20 -156 -3 -19 2 -21 61 -21 71 0 70 -2 76
101 3 43 0 41 88 41 1 0 3 -27 6 -60 8 -87 6 -84 73 -83 69 2 66 -4 52 98 -5
36 -12 88 -16 115 -13 95 -15 110 -25 180 -5 39 -12 90 -15 115 -3 25 -8 54
-10 66 -3 11 -7 51 -11 89 -12 124 -9 120 -96 123 -66 2 -77 0 -82 -15z m89
-209 c3 -32 7 -79 10 -104 2 -25 7 -84 11 -132 l6 -88 -37 0 c-37 0 -37 1 -32
33 4 17 9 73 13 122 4 50 8 104 9 120 2 17 3 50 4 74 1 60 9 48 16 -25z"/>
<path d="M1530 905 l0 -392 113 -1 c152 -2 154 -1 151 45 -1 21 -2 41 -3 45
-1 4 -27 7 -58 7 -32 -1 -64 -1 -70 0 -10 1 -13 77 -13 347 l0 345 -60 -2 -60
-2 0 -392z"/>
<path d="M1950 1288 c0 -7 -5 -44 -10 -83 -6 -38 -12 -88 -15 -110 -5 -39 -13
-94 -20 -145 -2 -14 -7 -45 -10 -70 -3 -25 -10 -72 -15 -105 -5 -33 -12 -87
-16 -120 -3 -33 -9 -79 -13 -101 l-8 -42 69 1 68 0 1 46 c1 25 1 56 2 68 0 22
7 26 52 26 39 0 43 -4 44 -40 1 -33 5 -72 10 -95 1 -6 110 -8 122 -2 3 2 2 29
-2 61 -5 32 -11 78 -14 103 -3 25 -7 56 -10 70 -2 14 -7 50 -11 80 -4 30 -8
64 -10 75 -1 11 -5 40 -8 65 -3 25 -8 61 -11 80 -3 19 -7 49 -9 65 -25 203
-15 185 -107 185 -56 0 -79 -4 -79 -12z m88 -200 c1 -24 4 -52 6 -63 2 -11 7
-65 10 -120 4 -55 9 -112 12 -127 4 -26 2 -28 -32 -28 l-37 0 7 83 c3 45 9
120 12 167 4 47 8 92 10 100 1 8 3 18 3 23 3 22 8 1 9 -35z"/>
<path d="M2268 1293 c-3 -4 -4 -181 -4 -393 l1 -385 60 0 60 0 0 163 0 162 26
0 c45 0 52 -20 55 -163 1 -73 3 -140 3 -149 1 -15 10 -17 59 -15 l57 2 -2 125
c-3 161 -9 203 -34 231 -19 22 -19 23 0 43 29 31 37 80 34 194 -3 122 -19 160
-73 178 -40 13 -236 19 -242 7z m187 -106 c11 -16 14 -231 3 -242 -10 -10 -68
-17 -69 -8 -1 4 -2 67 -3 139 l-2 131 30 -2 c16 -2 35 -10 41 -18z"/>
</g>
</svg>
